<svg id="color_line" height="512" viewBox="0 0 74 74" width="512" xmlns="http://www.w3.org/2000/svg" data-name="color line"><path d="m66.416 32.466a6.97 6.97 0 0 1 -6.967 6.967 7.4 7.4 0 0 1 -1.049-.075v.15a7.188 7.188 0 0 1 -7.166 7.192 7.663 7.663 0 0 1 -1.323-.125 8.134 8.134 0 0 1 -5.594 2.2 8.3 8.3 0 0 1 -7.517-4.775 5.409 5.409 0 0 1 -9.889.9 4.041 4.041 0 0 1 -.549.025 5.414 5.414 0 0 1 -5.419-5.419 5.011 5.011 0 0 1 .025-.624.848.848 0 0 1 -.25.025 8.216 8.216 0 0 1 -6.618-3.344 5.238 5.238 0 0 1 -5.219-5.244 5.473 5.473 0 0 1 .351-1.919 6.13 6.13 0 0 1 1.548-9.564 7.347 7.347 0 0 1 6.02-7.071 3.562 3.562 0 0 1 -.175-1.149 4.455 4.455 0 0 1 4.445-4.445 4.343 4.343 0 0 1 3.746 2.073 8.474 8.474 0 0 1 14.831-1.544 7.891 7.891 0 0 1 4.37-1.3 8.03 8.03 0 0 1 7.142 4.32 5.613 5.613 0 0 1 1.948-.349 5.771 5.771 0 0 1 5.768 5.768 5.174 5.174 0 0 1 -.075.874 5.106 5.106 0 0 1 1.673 3.621 5.2 5.2 0 0 1 3.6 4.919 5.44 5.44 0 0 1 -.524 2.3 6.87 6.87 0 0 1 2.867 5.613z" fill="#fe7058"/><path d="m64.6 37.15a6.666 6.666 0 0 0 .12-1.27 6.88 6.88 0 0 0 -2.88-5.62 5.315 5.315 0 0 0 .53-2.29 5.2 5.2 0 0 0 -3.6-4.92 5.087 5.087 0 0 0 -1.67-3.62 5.216 5.216 0 0 0 .07-.88 5.737 5.737 0 0 0 -7.71-5.42 8.034 8.034 0 0 0 -7.14-4.32 7.887 7.887 0 0 0 -4.37 1.3 8.485 8.485 0 0 0 -14.84 1.55 4.327 4.327 0 0 0 -3.74-2.07 4.394 4.394 0 0 0 -2.75.96 4.459 4.459 0 0 1 4.45-4.38 4.348 4.348 0 0 1 3.74 2.07 8.479 8.479 0 0 1 14.84-1.54 7.832 7.832 0 0 1 4.37-1.3 8.034 8.034 0 0 1 7.14 4.32 5.484 5.484 0 0 1 1.95-.35 5.764 5.764 0 0 1 5.76 5.77 5.106 5.106 0 0 1 -.07.87 5.1 5.1 0 0 1 1.67 3.62 5.2 5.2 0 0 1 3.6 4.92 5.392 5.392 0 0 1 -.53 2.3 6.925 6.925 0 0 1 1.06 10.3z" fill="#ea6453"/><path d="m9.382 62.199h-1v-7.105l6.805-4.026v-13.885h1v14.455l-6.805 4.026z" fill="#323c6b"/><path d="m37.641 64.425h-1v-33.682l5.719-4.557.623.782-5.342 4.257z" fill="#323c6b"/><path d="m26.639 54.882h-1v-23.351l-6.244-3.543.494-.87 6.75 3.831z" fill="#323c6b"/><path d="m65.62 62.65h-1v-5.265l-6.803-4.022v-12.737h1v12.166l6.803 4.023z" fill="#323c6b"/><path d="m48.367 56.686h-1v-19.66l3.685-2.999.631.775-3.316 2.7z" fill="#323c6b"/><circle cx="65.118" cy="65.934" fill="#e7aa6c" r="3.286"/><path d="m65.118 69.72a3.786 3.786 0 1 1 3.782-3.786 3.79 3.79 0 0 1 -3.782 3.786zm0-6.572a2.786 2.786 0 1 0 2.782 2.786 2.789 2.789 0 0 0 -2.782-2.787z" fill="#323c6b"/><circle cx="47.865" cy="59.977" fill="#27ccbc" r="3.286"/><path d="m47.865 63.764a3.786 3.786 0 1 1 3.786-3.787 3.791 3.791 0 0 1 -3.786 3.787zm0-6.573a2.786 2.786 0 1 0 2.786 2.786 2.789 2.789 0 0 0 -2.786-2.786z" fill="#323c6b"/><circle cx="37.138" cy="67.714" fill="#bbbbcd" r="3.286"/><path d="m37.139 71.5a3.786 3.786 0 1 1 3.786-3.786 3.79 3.79 0 0 1 -3.786 3.786zm0-6.573a2.786 2.786 0 1 0 2.786 2.787 2.79 2.79 0 0 0 -2.786-2.787z" fill="#323c6b"/><circle cx="26.135" cy="58.17" fill="#fcd462" r="3.286"/><path d="m26.135 61.956a3.786 3.786 0 1 1 3.786-3.786 3.79 3.79 0 0 1 -3.786 3.786zm0-6.573a2.786 2.786 0 1 0 2.786 2.787 2.79 2.79 0 0 0 -2.786-2.787z" fill="#323c6b"/><circle cx="8.882" cy="65.524" fill="#89c5cd" r="3.286"/><path d="m8.882 69.31a3.786 3.786 0 1 1 3.786-3.786 3.79 3.79 0 0 1 -3.786 3.786zm0-6.572a2.786 2.786 0 1 0 2.786 2.786 2.789 2.789 0 0 0 -2.786-2.786z" fill="#323c6b"/><path d="m28.956 17.9-1-.1a7.012 7.012 0 0 1 2.344-4.376 6.928 6.928 0 0 1 5.276-1.333l-.1 1c-5.897-.603-6.497 4.584-6.52 4.809z" fill="#323c6b"/><path d="m51.606 18.764c-2.381-4.882-6.75-4.118-6.933-4.082l-.19-.982a7.641 7.641 0 0 1 8.017 4.625z" fill="#323c6b"/><path d="m58.156 27.166a5.838 5.838 0 0 1 -5.382-3.845l.949-.313a4.743 4.743 0 0 0 5.441 3.073l.162.987a7.285 7.285 0 0 1 -1.17.098z" fill="#323c6b"/><path d="m28.664 26.1a5.588 5.588 0 0 0 -5.988-3.229l-.18-.984a6.68 6.68 0 0 1 7.076 3.794z" fill="#323c6b"/><circle cx="44.579" cy="25.07" fill="#eeefee" r="2.433"/><path d="m44.579 28a2.933 2.933 0 1 1 2.934-2.934 2.937 2.937 0 0 1 -2.934 2.934zm0-4.867a1.933 1.933 0 1 0 1.934 1.933 1.935 1.935 0 0 0 -1.934-1.929z" fill="#323c6b"/><circle cx="17.566" cy="26.277" fill="#eeefee" r="2.433"/><path d="m17.565 29.21a2.933 2.933 0 1 1 2.935-2.933 2.936 2.936 0 0 1 -2.935 2.933zm0-4.867a1.933 1.933 0 1 0 1.935 1.934 1.935 1.935 0 0 0 -1.935-1.933z" fill="#323c6b"/><circle cx="53.249" cy="32.875" fill="#eeefee" r="2.433"/><g fill="#323c6b"><path d="m53.249 35.808a2.933 2.933 0 1 1 2.934-2.933 2.937 2.937 0 0 1 -2.934 2.933zm0-4.867a1.933 1.933 0 1 0 1.934 1.934 1.936 1.936 0 0 0 -1.934-1.934z"/><path d="m9.7 37.75a.5.5 0 0 1 -.271-.079 8.718 8.718 0 0 1 -4.046-7.352.5.5 0 0 1 1 0 7.72 7.72 0 0 0 3.587 6.51.5.5 0 0 1 -.271.921z"/><path d="m5.309 28.25a.5.5 0 0 1 -.461-.306c-.038-.09-.07-.182-.1-.275l-.048-.122a.5.5 0 0 1 .939-.345l.049.14c.025.071.05.143.079.213a.5.5 0 0 1 -.461.694z"/><path d="m61.872 15.438a.5.5 0 0 1 -.5-.489 8.217 8.217 0 0 0 -4.754-7.287.5.5 0 0 1 .426-.905 9.213 9.213 0 0 1 5.328 8.169.5.5 0 0 1 -.489.511z"/><path d="m63.779 18.542a.5.5 0 0 1 -.3-.1l-.125-.1c-.05-.04-.1-.08-.152-.116a.5.5 0 1 1 .561-.828c.076.051.146.107.217.164l.1.08a.5.5 0 0 1 -.3.9z"/><path d="m44.316 49.272a8.846 8.846 0 0 1 -7.464-4.13 5.91 5.91 0 0 1 -10.215.281c-.094 0-.187 0-.275 0a5.926 5.926 0 0 1 -5.919-5.919v-.1a8.648 8.648 0 0 1 -6.595-3.349 5.772 5.772 0 0 1 -5.466-5.736 5.946 5.946 0 0 1 .28-1.81 6.631 6.631 0 0 1 1.629-9.975 7.887 7.887 0 0 1 5.9-7.147 4.361 4.361 0 0 1 -.065-.771 4.947 4.947 0 0 1 8.591-3.343 8.981 8.981 0 0 1 15.064-1.248 8.421 8.421 0 0 1 4.236-1.125 8.54 8.54 0 0 1 7.378 4.215 6.155 6.155 0 0 1 1.712-.245 6.276 6.276 0 0 1 6.269 6.269 5.5 5.5 0 0 1 -.043.689 5.642 5.642 0 0 1 1.618 3.445 5.665 5.665 0 0 1 3.619 5.279 5.86 5.86 0 0 1 -.411 2.135 7.459 7.459 0 0 1 -5.269 13.226 7.688 7.688 0 0 1 -7.657 7.287 7.951 7.951 0 0 1 -1.166-.092 8.677 8.677 0 0 1 -5.751 2.164zm-7.6-6.626.536 1.144a7.832 7.832 0 0 0 7.064 4.482 7.679 7.679 0 0 0 5.253-2.063l.183-.17.245.043a7.2 7.2 0 0 0 1.236.117 6.687 6.687 0 0 0 6.667-6.691v-.726l.57.081a6.952 6.952 0 0 0 .979.07 6.474 6.474 0 0 0 6.467-6.467 6.409 6.409 0 0 0 -2.662-5.212l-.337-.241.175-.376a4.951 4.951 0 0 0 .478-2.087 4.674 4.674 0 0 0 -3.251-4.444l-.334-.106-.013-.35a4.627 4.627 0 0 0 -1.507-3.267l-.2-.183.045-.271a4.706 4.706 0 0 0 .068-.792 5.274 5.274 0 0 0 -5.269-5.269 5.088 5.088 0 0 0 -1.771.318l-.413.155-.205-.391a7.545 7.545 0 0 0 -6.7-4.052 7.4 7.4 0 0 0 -4.094 1.215l-.412.272-.277-.409a7.974 7.974 0 0 0 -13.96 1.456l-.376.927-.515-.859a3.867 3.867 0 0 0 -3.317-1.83 3.949 3.949 0 0 0 -3.945 3.945 3.078 3.078 0 0 0 .149.992l.181.544-.564.1a6.877 6.877 0 0 0 -5.608 6.586l-.006.291-.257.138a5.63 5.63 0 0 0 -1.419 8.789l.211.227-.109.29a4.969 4.969 0 0 0 -.316 1.748 4.711 4.711 0 0 0 4.723 4.744h.25l.147.2a7.671 7.671 0 0 0 6.216 3.144.584.584 0 0 0 .108 0l.753-.25-.115.792a4.513 4.513 0 0 0 -.021.561 4.951 4.951 0 0 0 4.984 4.919 3.041 3.041 0 0 0 .413-.02l.341-.048.167.3a4.909 4.909 0 0 0 8.976-.812z"/></g><path d="m10.637 24.267a.626.626 0 0 1 -.1-.009.6.6 0 0 1 -.488-.693 3.661 3.661 0 0 1 1.874-2.62l1.23-.664.03-1.4a4.967 4.967 0 0 1 .1-.877.6.6 0 0 1 1.176.238 3.78 3.78 0 0 0 -.076.665l-.037 1.747a.6.6 0 0 1 -.314.516l-1.543.83a2.469 2.469 0 0 0 -1.263 1.768.6.6 0 0 1 -.589.499z" fill="#fff"/><path d="m15.133 16.454a.6.6 0 0 1 -.409-1.039 5.29 5.29 0 0 1 .73-.567.6.6 0 0 1 .654 1.006 4.153 4.153 0 0 0 -.566.438.6.6 0 0 1 -.409.162z" fill="#fff"/></svg>