<svg height="469pt" viewBox="0 0 469.625 469" width="469pt" xmlns="http://www.w3.org/2000/svg"><path d="m296.433594 256.140625v42.5c0 8.539063-13.269532 15.957031-32.75 19.699219-9.5 1.753906-19.140625 2.617187-28.800782 2.578125-34 0-61.558593-9.96875-61.558593-22.277344v-42.5c0 12.308594 27.558593 22.277344 61.558593 22.277344s61.550782-9.96875 61.550782-22.277344zm0 0" fill="#00acea"/><path d="m296.433594 255.257812v.882813c0 12.308594-27.550782 22.277344-61.550782 22.277344s-61.558593-9.96875-61.558593-22.277344v-42.199219c0 12.308594 27.558593 22.269532 61.558593 22.269532s61.550782-9.960938 61.550782-22.269532zm0 0" fill="#00efd1"/><path d="m296.433594 171.730469v42.210937c0 12.308594-27.550782 22.269532-61.550782 22.269532s-61.558593-9.960938-61.558593-22.269532v-42.210937c0 12.300781 27.558593 22.277343 61.558593 22.277343s61.550782-9.976562 61.550782-22.277343zm0 0" fill="#00acea"/><path d="m234.882812 149.449219c33.988282 0 61.550782 9.980469 61.550782 22.28125s-27.5625 22.277343-61.550782 22.277343c-33.988281 0-61.558593-9.976562-61.558593-22.277343s27.558593-22.28125 61.558593-22.28125zm0 0" fill="#00efd1"/><g fill="#fedb41"><path d="m3.363281 105.789062c-1.132812-12.859374-.378906-25.8125 2.234375-38.453124l.023438-.105469c3.738281-16.875 11.207031-31 22.207031-41.992188 15.234375-15.242187 36.128906-23.582031 62.105469-24.78125 11.710937-.441406 23.433594.355469 34.980468 2.371094l-2.761718 15.761719c-10.410156-1.820313-20.984375-2.539063-31.546875-2.144532-21.800781 1.003907-39.136719 7.773438-51.464844 20.109376-8.796875 8.789062-14.816406 20.253906-17.886719 34.082031-2.289062 11.09375-2.945312 22.46875-1.953125 33.753906zm0 0"/><path d="m40.367188 216.625c-5.019532-9.15625-9.625-18.367188-13.691407-27.382812l14.585938-6.578126c3.898437 8.636719 8.3125 17.476563 13.136719 26.269532zm-25.042969-55.953125c-2.859375-8.332031-5.300781-16.800781-7.304688-25.378906l15.585938-3.609375c1.886719 8.050781 4.175781 15.996094 6.859375 23.8125zm0 0"/><path d="m123.222656 327.578125c-1.953125-2.03125-3.886718-4.070313-5.800781-6.113281-4.378906-4.691406-8.609375-9.355469-12.570313-13.867188-.714843-.816406-1.429687-1.632812-2.140624-2.453125l12.082031-10.488281c.691406.796875 1.382812 1.589844 2.082031 2.382812 3.855469 4.390626 7.972656 8.933594 12.234375 13.5 1.863281 1.992188 3.746094 3.976563 5.65625 5.960938zm-39.84375-45.9375c-1.199218-1.542969-2.386718-3.085937-3.558594-4.632813-5.015624-6.601562-9.878906-13.300781-14.441406-19.933593l13.175782-9.074219c4.421874 6.421875 9.136718 12.921875 14 19.328125 1.144531 1.503906 2.296874 3.003906 3.457031 4.5zm0 0"/><path d="m373.382812 464.285156c-4.941406 0-10.019531-.25-15.242187-.75-3.679687-.355468-7.480469-.839844-11.300781-1.445312l2.5-15.796875c3.5.550781 6.96875 1 10.324218 1.316406 13.679688 1.3125 26.199219.71875 37.230469-1.761719 13.652344-3.078125 25-9.066406 33.726563-17.792968 17.621094-17.617188 23.910156-45.84375 18.191406-81.628907-3.054688-19.054687-9.417969-39.699219-18.917969-61.347656l14.652344-6.429687c10.046875 22.902343 16.800781 44.851562 20.0625 65.25 6.566406 41.0625-1.273437 74.074218-22.671875 95.472656-10.902344 10.898437-24.871094 18.328125-41.527344 22.085937-8.878906 1.9375-17.941406 2.882813-27.027344 2.828125zm0 0"/><path d="m422.726562 269.753906c-3.300781-6.644531-6.929687-13.453125-10.792968-20.234375l13.898437-7.921875c4.015625 7.042969 7.792969 14.125 11.226563 21.046875zm0 0"/><path d="m393.289062 219.664062c-5.53125-8.113281-11.355468-16.175781-17.308593-23.960937l12.707031-9.722656c6.132812 8.019531 12.128906 16.316406 17.824219 24.671875zm-35.902343-46.945312c-6.375-7.453125-13.042969-14.832031-19.820313-21.925781l11.574219-11.050781c6.976563 7.304687 13.839844 14.898437 20.40625 22.578124zm0 0"/><path d="m93.855469 467.207031c-9.015625.003907-18.003907-.921875-26.832031-2.753906-16.953126-3.730469-31.085938-11.199219-42.097657-22.207031-15.242187-15.238282-23.574219-36.136719-24.777343-62.117188-.441407-11.707031.355468-23.429687 2.375-34.96875l15.757812 2.757813c-1.820312 10.410156-2.539062 20.980469-2.144531 31.539062 1.007812 21.800781 7.773437 39.144531 20.101562 51.476563 8.8125 8.816406 20.296875 14.828125 34.132813 17.871094 11.082031 2.292968 22.4375 2.953124 33.710937 1.957031l1.398438 15.9375c-3.875.339843-7.75.507812-11.625.507812zm0 0"/><path d="m134.988281 462.042969-3.609375-15.585938c8.046875-1.886719 15.992188-4.175781 23.808594-6.859375l5.171875 15.140625c-8.328125 2.859375-16.796875 5.296875-25.371094 7.304688zm53.945313-18.652344-6.578125-14.585937c8.636719-3.890626 17.476562-8.308594 26.273437-13.132813l7.6875 14.03125c-9.15625 5.015625-18.371094 9.625-27.382812 13.6875zm0 0"/><path d="m256.769531 404.683594-9.074219-13.175782c6.5-4.472656 13-9.183593 19.320313-14 1.511719-1.144531 3.011719-2.296874 4.5-3.457031l9.816406 12.632813c-1.542969 1.203125-3.085937 2.390625-4.632812 3.5625-6.515625 4.957031-13.222657 9.820312-19.929688 14.4375zm48.070313-37.324219-10.484375-12.085937c.792969-.691407 1.589843-1.382813 2.382812-2.078126 4.355469-3.832031 8.902344-7.953124 13.5-12.238281 1.984375-1.855469 3.96875-3.753906 5.953125-5.65625l11.082032 11.539063c-2.035157 1.953125-4.074219 3.890625-6.117188 5.8125-4.722656 4.398437-9.382812 8.625-13.859375 12.5625-.824219.722656-1.640625 1.4375-2.457031 2.144531zm0 0"/><path d="m461.785156 123.21875-15.804687-2.5c.554687-3.5 1-6.972656 1.320312-10.324219 1.3125-13.671875.71875-26.195312-1.761719-37.21875-3.078124-13.664062-9.066406-25.015625-17.792968-33.742187-17.621094-17.613282-45.84375-23.902344-81.632813-18.183594-19.054687 3.050781-39.699219 9.414062-61.347656 18.914062l-6.425781-14.644531c22.898437-10.046875 44.847656-16.800781 65.246094-20.0625 41.066406-6.570312 74.074218 1.273438 95.472656 22.671875 10.902344 10.898438 18.332031 24.871094 22.089844 41.535156 2.851562 12.683594 3.550781 26.902344 2.078124 42.265626-.351562 3.671874-.835937 7.472656-1.441406 11.289062zm0 0"/><path d="m248.511719 58.539062-7.957031-13.878906c7.277343-4.171875 14.601562-8.089844 21.78125-11.65625l7.117187 14.332032c-6.898437 3.421874-13.941406 7.191406-20.941406 11.203124zm0 0"/><path d="m150.488281 132.496094-11.050781-11.578125c7.300781-6.972657 14.902344-13.839844 22.578125-20.40625l10.402344 12.160156c-7.457031 6.382813-14.835938 13.046875-21.929688 19.824219zm44.910157-38.410156-9.71875-12.710938c8.023437-6.136719 16.324218-12.132812 24.671874-17.820312l9.007813 13.226562c-8.105469 5.519531-16.167969 11.34375-23.960937 17.304688zm0 0"/></g><path d="m327.773438 411.066406-15.382813 4.40625 6.78125 23.671875c-19.101563-6.042969-37.601563-13.84375-55.257813-23.3125-24.472656-13.078125-47.742187-28.285156-69.550781-45.441406-16.171875-12.664063-31.640625-26.203125-46.339843-40.554687l-11.179688 11.445312c15.109375 14.753906 31.011719 28.671875 47.640625 41.695312 22.550781 17.742188 46.621094 33.464844 71.929687 46.988282 14.777344 7.871094 30.097657 14.6875 45.835938 20.398437l-14.605469 4.183594 4.402344 15.378906 40.609375-11.625.25-.070312c2.050781-.574219 3.789062-1.941407 4.828125-3.800781 1.042969-1.859376 1.296875-4.058594.710937-6.105469zm0 0" fill="#00efd1"/><path d="m142.789062 18.773438 8.089844 37.828124 15.648438-3.34375-5.167969-24.167968c14.683594 5.207031 28.96875 11.476562 42.742187 18.765625 24.15625 12.75 47.148438 27.59375 68.710938 44.359375 10.175781 7.847656 20.417969 16.359375 30.441406 25.296875 5.464844 4.878906 11.0625 10.082031 16.644532 15.476562 2.324218 2.238281 4.753906 4.621094 7.214843 7.082031l11.3125-11.3125c-2.53125-2.53125-5.03125-4.988281-7.417969-7.289062-5.722656-5.527344-11.476562-10.875-17.101562-15.898438-10.308594-9.1875-20.84375-17.945312-31.289062-26-22.292969-17.332031-46.066407-32.675781-71.039063-45.855468-10.332031-5.460938-20.945313-10.382813-31.792969-14.742188l14.101563-3.015625-3.347657-15.644531-41.609374 8.898438c-4.109376.914062-6.828126 4.832031-6.242188 9 .027344.1875.0625.375.101562.5625zm0 0" fill="#00efd1"/><path d="m128.445312 131.640625c-2.800781 2.800781-5.113281 5.15625-7.285156 7.410156-5.390625 5.578125-10.738281 11.332031-15.902344 17.105469-9.183593 10.304688-17.941406 20.839844-26 31.292969-17.324218 22.292969-32.667968 46.0625-45.851562 71.035156-5.464844 10.332031-10.386719 20.941406-14.742188 31.789063l-3.015624-14.101563-15.648438 3.347656 8.898438 41.609375c.917968 4.105469 4.828124 6.820313 8.996093 6.242188.191407-.027344.382813-.058594.570313-.101563l37.832031-8.089843-3.347656-15.644532-24.167969 5.167969c5.203125-14.6875 11.476562-28.972656 18.769531-42.742187 12.75-24.15625 27.59375-47.148438 44.355469-68.714844 7.851562-10.179688 16.363281-20.421875 25.289062-30.4375 5.019532-5.609375 10.222657-11.210938 15.480469-16.648438 2.105469-2.191406 4.359375-4.480468 7.085938-7.203125zm0 0" fill="#00efd1"/><path d="m469.625 178.019531-11.628906-40.613281-.070313-.25c-.578125-2.046875-1.945312-3.78125-3.804687-4.820312-1.855469-1.035157-4.050782-1.289063-6.097656-.707032l-37.257813 10.660156 4.398437 15.382813 23.671876-6.769531c-6.046876 19.097656-13.847657 37.59375-23.3125 55.25-13.074219 24.472656-28.277344 47.746094-45.4375 69.546875-12.667969 16.175781-26.207032 31.648437-40.554688 46.351562l11.445312 11.179688c14.753907-15.113281 28.667969-31.023438 41.691407-47.648438 17.746093-22.550781 33.46875-46.617187 46.988281-71.925781 7.871094-14.785156 14.6875-30.101562 20.402344-45.84375l4.183594 14.609375zm0 0" fill="#00efd1"/></svg>